<svg height='100px' width='100px'  fill="#333333" xmlns:dc="http://purl.org/dc/elements/1.1/" xmlns:cc="http://creativecommons.org/ns#" xmlns:rdf="http://www.w3.org/1999/02/22-rdf-syntax-ns#" xmlns:svg="http://www.w3.org/2000/svg" xmlns="http://www.w3.org/2000/svg" xmlns:sodipodi="http://sodipodi.sourceforge.net/DTD/sodipodi-0.dtd" xmlns:inkscape="http://www.inkscape.org/namespaces/inkscape" version="1.1" x="0px" y="0px" viewBox="0 0 100 100"><g transform="translate(0,-952.36218)"><path style="text-indent:0;text-transform:none;direction:ltr;block-progression:tb;baseline-shift:baseline;color:#000000;enable-background:accumulate;" d="m 35.216009,962.37337 a 2.0001998,2.0001998 0 0 0 -0.4063,0.125 c -15.7636,5.8419 -24.8124002,21.1128 -24.8124002,38.65633 0,22.7364 18.4510002,41.2187 41.1874002,41.2187 17.5436,0 32.8457,-9.0801 38.6876,-24.8438 a 2.0001998,2.0001998 0 0 0 -2.625,-2.5625 c -4.2177,1.6961 -8.8501,2.5938 -13.7188,2.5938 -20.1992,0 -38.7188,-18.55083 -38.7188,-38.75003 0,-4.8688 0.8664,-9.5012 2.5626,-13.7187 a 2.0001998,2.0001998 0 0 0 -2.1563,-2.7188 z m -2.8437,5.625 c -0.9383,3.4708 -1.5626,7.0589 -1.5626,10.8125 0,22.60863 20.1102,42.75003 42.7188,42.75003 3.7511,0 7.3437,-0.6567 10.8125,-1.5938 -6.1115,11.7169 -18.512,18.4063 -33.1563,18.4063 -20.5747,0 -37.1874,-16.644 -37.1874,-37.2187 0,-14.64293 6.6602,-27.04423 18.375,-33.15633 z" fill="#333333" fill-opacity="1" stroke="none" marker="none" visibility="visible" display="inline" overflow="visible"></path></g></svg>