<svg transform="scale(2, 1)" 
xmlns="http://www.w3.org/2000/svg" 
xmlns:xlink="http://www.w3.org/1999/xlink" 
width="100" 
height="100" 
viewBox="0 0 100 100">
<g stroke="#00d1d8" 
stroke-width="1.75" 
transform="translate(50, 31) rotate(90) translate(-50 -50)" 
style="fill:#00d1d8">
<svg fill="#00d1d8" 
xmlns="http://www.w3.org/2000/svg" 
xmlns:xlink="http://www.w3.org/1999/xlink" 
version="1.1" 
x="0px" 
y="0px" 
viewBox="0 0 105 105" 
style="enable-background:new 0 0 100 100;" 
xml:space="preserve">
<path d="M50.6303711,18.2734375C52.6782227,16.6103516,55,14.7246094,55,11c0-0.5527344-0.4477539-1-1-1s-1,0.4472656-1,1  c0,2.7724609-1.6826172,4.1386719-3.6303711,5.7207031C47.3212891,18.3837891,45,20.2695312,45,23.9931641  c0,3.7246094,2.3212891,5.6103516,4.3691406,7.2744141C51.3173828,32.8496094,53,34.2167969,53,36.9902344  c0,2.7744141-1.6826172,4.140625-3.6303711,5.7236328C47.3212891,44.3779297,45,46.2646484,45,49.9912109  c0,3.7246094,2.3212891,5.6103516,4.3691406,7.2744141C51.3173828,58.8476562,53,60.2148438,53,62.9882812  c0,2.7753906-1.6826172,4.1435547-3.6308594,5.7265625C47.3212891,70.3798828,45,72.2666016,45,75.9941406  s2.3212891,5.6142578,4.3691406,7.2792969C51.3173828,84.8564453,53,86.2246094,53,89c0,0.5527344,0.4477539,1,1,1s1-0.4472656,1-1  c0-3.7275391-2.3212891-5.6142578-4.3691406-7.2792969C48.6826172,80.1376953,47,78.7695312,47,75.9941406  s1.6826172-4.1435547,3.6308594-5.7265625C52.6787109,68.6025391,55,66.7158203,55,62.9882812  c0-3.7255859-2.3212891-5.6113281-4.3696289-7.2753906C48.6821289,54.1308594,47,52.7636719,47,49.9912109  c0-2.7744141,1.6826172-4.1416016,3.6308594-5.7246094C52.6787109,42.6025391,55,40.7158203,55,36.9902344  s-2.3212891-5.6113281-4.3696289-7.2753906C48.6821289,28.1328125,47,26.765625,47,23.9931641  C47,21.2216797,48.6821289,19.8554688,50.6303711,18.2734375z">
</path>
</svg>
</g>
</svg>